<?xml version="1.0" encoding="utf-8"?>
<!-- Generator: Adobe Illustrator 16.0.0, SVG Export Plug-In . SVG Version: 6.00 Build 0)  -->
<!DOCTYPE svg PUBLIC "-//W3C//DTD SVG 1.1//EN" "http://www.w3.org/Graphics/SVG/1.1/DTD/svg11.dtd">
<svg version="1.1" id="Layer_1" xmlns="http://www.w3.org/2000/svg" xmlns:xlink="http://www.w3.org/1999/xlink" x="0px" y="0px"
	 width="512.575px" height="81.003px" viewBox="2.177 -0.137 512.575 81.003" enable-background="new 2.177 -0.137 512.575 81.003"
	 xml:space="preserve">
<g>
	<path d="M9.07,41.861c0,13.003,4.536,19.503,13.606,19.503c3.931,0,6.969-1.043,9.116-3.13c2.146-2.086,3.613-4.55,4.399-7.393
		l2.268,0.726c-1.028,3.689-2.873,6.653-5.533,8.89c-2.661,2.238-6.562,3.356-11.701,3.356c-6.472,0-11.264-1.905-14.377-5.715
		c-3.115-3.81-4.672-9.131-4.672-15.965c0-7.075,1.617-12.654,4.853-16.736c3.234-4.082,8.028-6.122,14.378-6.122
		c6.953,0,11.595,2.146,13.924,6.439c2.327,4.295,3.492,9.465,3.492,15.512v0.635H9.07z M9.161,39.412h22.769
		c0-5.986-0.832-10.432-2.495-13.334c-1.664-2.902-4.369-4.354-8.118-4.354C13.697,21.723,9.644,27.62,9.161,39.412z"/>
	<path d="M45.989,60.275c2.177,0,3.674-0.104,4.49-0.317c0.816-0.211,1.345-0.635,1.587-1.27c0.241-0.636,0.363-1.799,0.363-3.493
		V7.755c0-1.511-0.182-2.524-0.544-3.039c-0.363-0.513-1.089-0.771-2.178-0.771h-3.355V1.496l9.614-1.633h2.449v55.332
		c0,1.633,0.121,2.782,0.363,3.447c0.241,0.666,0.785,1.104,1.633,1.315c0.846,0.213,2.327,0.317,4.444,0.317v2.449H45.989V60.275z"
		/>
	<path d="M78.281,41.861c0,13.003,4.536,19.503,13.606,19.503c3.931,0,6.969-1.043,9.116-3.13c2.146-2.086,3.613-4.55,4.399-7.393
		l2.268,0.726c-1.028,3.689-2.873,6.653-5.533,8.89c-2.661,2.238-6.562,3.356-11.701,3.356c-6.472,0-11.264-1.905-14.377-5.715
		c-3.115-3.81-4.672-9.131-4.672-15.965c0-7.075,1.617-12.654,4.853-16.736c3.234-4.082,8.028-6.122,14.378-6.122
		c6.953,0,11.595,2.146,13.924,6.439c2.327,4.295,3.492,9.465,3.492,15.512v0.635H78.281z M78.372,39.412h22.769
		c0-5.986-0.832-10.432-2.495-13.334c-1.664-2.902-4.369-4.354-8.118-4.354C82.908,21.723,78.855,27.62,78.372,39.412z"/>
	<path d="M177.88,58.688c0.241,0.635,0.771,1.059,1.587,1.27c0.816,0.213,2.313,0.317,4.49,0.317v2.449H165.09v-2.449
		c2.177,0,3.674-0.104,4.49-0.317c0.816-0.211,1.345-0.635,1.587-1.27c0.241-0.636,0.363-1.799,0.363-3.493V33.062
		c0-6.894-2.54-10.341-7.619-10.341c-2.42,0-4.49,0.696-6.214,2.087c-1.724,1.392-3.372,3.296-4.943,5.714v24.673
		c0,1.694,0.12,2.857,0.362,3.493c0.241,0.635,0.771,1.059,1.588,1.27c0.816,0.213,2.313,0.317,4.49,0.317v2.449h-18.868v-2.449
		c2.178,0,3.674-0.104,4.49-0.317c0.816-0.211,1.345-0.635,1.588-1.27c0.24-0.636,0.362-1.799,0.362-3.493V33.062
		c0-6.894-2.54-10.341-7.619-10.341c-2.42,0-4.49,0.696-6.214,2.087c-1.724,1.392-3.372,3.296-4.943,5.714v24.673
		c0,1.633,0.12,2.782,0.362,3.447c0.241,0.666,0.785,1.104,1.633,1.315c0.847,0.213,2.327,0.317,4.445,0.317v2.449h-18.867v-2.449
		c2.177,0,3.673-0.104,4.489-0.317c0.816-0.211,1.346-0.635,1.588-1.27c0.241-0.636,0.362-1.799,0.362-3.493V27.711
		c0-1.511-0.181-2.524-0.544-3.039c-0.362-0.513-1.089-0.771-2.177-0.771h-3.356v-2.449l9.343-1.633h2.449v7.075h0.091
		c1.692-2.54,3.629-4.444,5.806-5.715c2.177-1.27,4.867-1.904,8.073-1.904c6.288,0,9.887,2.57,10.794,7.71
		c1.753-2.54,3.719-4.459,5.896-5.76c2.177-1.3,4.866-1.95,8.072-1.95c3.87,0,6.682,1.028,8.437,3.084
		c1.753,2.057,2.63,5.352,2.63,9.887v22.949C177.516,56.889,177.637,58.052,177.88,58.688z"/>
	<path d="M196.657,41.861c0,13.003,4.536,19.503,13.606,19.503c3.931,0,6.969-1.043,9.116-3.13c2.146-2.086,3.613-4.55,4.399-7.393
		l2.268,0.726c-1.028,3.689-2.873,6.653-5.533,8.89c-2.661,2.238-6.562,3.356-11.701,3.356c-6.472,0-11.264-1.905-14.377-5.715
		c-3.115-3.81-4.672-9.131-4.672-15.965c0-7.075,1.617-12.654,4.853-16.736c3.234-4.082,8.028-6.122,14.378-6.122
		c6.953,0,11.595,2.146,13.924,6.439c2.327,4.295,3.492,9.465,3.492,15.512v0.635H196.657z M196.748,39.412h22.769
		c0-5.986-0.832-10.432-2.495-13.334c-1.664-2.902-4.369-4.354-8.118-4.354C201.284,21.723,197.231,27.62,196.748,39.412z"/>
	<path d="M273.033,58.688c0.242,0.635,0.771,1.059,1.588,1.27c0.816,0.213,2.314,0.317,4.49,0.317v2.449h-18.867v-2.449
		c2.115,0,3.598-0.104,4.445-0.317c0.846-0.211,1.391-0.649,1.633-1.315c0.24-0.665,0.361-1.814,0.361-3.447V33.062
		c0-2.962-0.68-5.427-2.039-7.393c-1.361-1.965-3.615-2.948-6.758-2.948c-2.541,0-4.672,0.666-6.396,1.996s-3.433,3.266-5.125,5.805
		v24.673c0,1.633,0.12,2.782,0.362,3.447c0.241,0.666,0.785,1.104,1.633,1.315c0.847,0.213,2.327,0.317,4.445,0.317v2.449h-18.867
		v-2.449c2.177,0,3.673-0.104,4.489-0.317c0.816-0.211,1.346-0.635,1.588-1.27c0.241-0.636,0.362-1.799,0.362-3.493V27.711
		c0-1.511-0.181-2.524-0.544-3.039c-0.362-0.513-1.089-0.771-2.177-0.771h-3.356v-2.449l9.343-1.633h2.449v7.075h0.091
		c1.814-2.66,3.794-4.595,5.941-5.806c2.146-1.209,4.882-1.813,8.208-1.813c4.295,0,7.424,1.043,9.389,3.129
		s2.949,5.367,2.949,9.842v22.949C272.672,56.889,272.791,58.052,273.033,58.688z"/>
	<path d="M292.311,61.953c-1.604-1.179-2.404-3.521-2.404-7.029V22.812h-7.438v-2.449c3.324,0,5.955-1.254,7.891-3.765
		c1.936-2.508,3.145-5.76,3.629-9.751h1.904v13.516h10.25v2.449h-10.25v31.839c0,2.299,0.318,3.9,0.953,4.808s1.496,1.36,2.584,1.36
		c1.027,0,2.146-0.331,3.357-0.997c1.209-0.665,2.145-1.33,2.811-1.996l0.998,2.087c-1.512,1.27-2.873,2.222-4.082,2.856
		c-1.209,0.636-2.811,0.953-4.807,0.953S293.912,63.133,292.311,61.953z"/>
	<path d="M350.045,61.545c-1.088,0.605-2.131,1.104-3.129,1.497s-2.373,0.59-4.127,0.59c-1.451,0-2.602-0.349-3.447-1.043
		c-0.848-0.694-1.361-2.223-1.543-4.581c-2.418,1.995-4.67,3.463-6.756,4.399c-2.088,0.937-4.4,1.406-6.939,1.406
		c-3.389,0-6.109-0.771-8.164-2.313c-2.057-1.542-3.084-3.824-3.084-6.849c0-4.293,2.115-8.012,6.35-11.157
		c4.232-3.144,10.4-5.32,18.504-6.531v-5.079c0-3.387-0.635-5.926-1.904-7.62c-1.27-1.692-3.357-2.54-6.26-2.54
		c-1.572,0-3.1,0.228-4.58,0.681c-1.482,0.453-2.662,1.029-3.537,1.724c-0.879,0.696-1.316,1.315-1.316,1.859
		c0,0.363,0.287,0.757,0.861,1.18c0.574,0.424,1.043,0.847,1.406,1.27c0.363,0.424,0.545,1.12,0.545,2.086
		c0,1.149-0.318,2.072-0.953,2.767c-0.635,0.696-1.557,1.044-2.766,1.044c-1.27,0-2.268-0.408-2.994-1.225
		c-0.725-0.816-1.088-1.95-1.088-3.402c0-1.753,0.543-3.431,1.633-5.034c1.088-1.602,2.797-2.902,5.125-3.9
		c2.326-0.998,5.275-1.496,8.844-1.496c4.354,0,7.604,0.922,9.752,2.767c2.145,1.845,3.219,4.975,3.219,9.388v22.405
		c0,2.358,0.258,3.978,0.771,4.854c0.514,0.877,1.346,1.314,2.494,1.314c0.604,0,1.451-0.181,2.541-0.544L350.045,61.545z
		 M321.655,58.143c1.27,1.12,3.053,1.679,5.352,1.679c1.934,0,3.764-0.393,5.488-1.18c1.723-0.785,3.461-1.844,5.215-3.175V39.503
		c-11.973,2.358-17.961,6.895-17.961,13.606C319.748,55.347,320.383,57.025,321.655,58.143z"/>
	<path d="M354.307,60.275c2.178,0,3.674-0.104,4.49-0.317c0.816-0.211,1.346-0.635,1.588-1.27c0.24-0.636,0.363-1.799,0.363-3.493
		V7.755c0-1.511-0.182-2.524-0.545-3.039c-0.363-0.513-1.088-0.771-2.176-0.771h-3.357V1.496l9.615-1.633h2.449v55.332
		c0,1.633,0.121,2.782,0.363,3.447c0.24,0.666,0.785,1.104,1.633,1.315c0.846,0.213,2.326,0.317,4.443,0.317v2.449h-18.867V60.275z"
		/>
	<path d="M445.514,24.49c3.176,3.66,4.764,8.967,4.764,15.92c0,7.499-2.012,13.274-6.033,17.325
		c-4.021,4.053-9.631,6.078-16.826,6.078c-2.844,0-5.443-0.424-7.801-1.271v10.795c0,1.935,0.303,3.175,0.906,3.719
		c0.605,0.544,1.936,0.816,3.992,0.816v2.993h-25.127v-2.993c1.754,0,3.023-0.106,3.811-0.317c0.785-0.213,1.314-0.621,1.588-1.225
		c0.271-0.605,0.408-1.604,0.408-2.993V27.983c0-1.209-0.168-2.01-0.5-2.404c-0.332-0.393-1.043-0.59-2.131-0.59h-3.176v-2.993
		l14.967-2.358h4.809v4.626h0.09c1.814-1.692,3.703-2.993,5.67-3.9c1.965-0.907,4.398-1.36,7.303-1.36
		C437.908,19.003,442.34,20.833,445.514,24.49z M431.727,58.96c1.18-1.238,2.041-3.234,2.586-5.986
		c0.543-2.751,0.816-6.545,0.816-11.384c0-5.806-0.635-10.251-1.906-13.335c-1.27-3.084-3.326-4.626-6.168-4.626
		c-2.539,0-5.02,1.482-7.438,4.444v29.3c2.297,2.299,4.746,3.446,7.348,3.446C428.961,60.819,430.547,60.2,431.727,58.96z"/>
	<path d="M499.623,58.869c0.967,0.576,2.236,0.862,3.809,0.862v2.993h-26.576v-2.993h2.268c1.209,0,1.813-0.423,1.813-1.271
		c0-0.544-0.211-1.118-0.635-1.723l-7.166-10.977l-7.438,10.613c-0.424,0.605-0.635,1.21-0.635,1.814
		c0,0.484,0.166,0.861,0.498,1.134c0.332,0.271,0.801,0.408,1.406,0.408h2.086v2.993h-16.236v-2.993
		c1.875,0,3.447-0.286,4.717-0.862c1.27-0.573,2.51-1.617,3.719-3.129l10.07-12.79l-11.158-17.054
		c-0.725-1.088-1.512-1.828-2.357-2.223c-0.848-0.393-2.148-0.589-3.902-0.589v-2.994h25.854v2.994h-1.725
		c-1.27,0-1.904,0.424-1.904,1.27c0,0.726,0.332,1.542,0.998,2.449l4.898,7.257l5.715-8.436c0.422-0.604,0.635-1.119,0.635-1.543
		c0-0.664-0.424-0.997-1.27-0.997h-2.088v-2.994h14.424v2.994c-1.875,0-3.418,0.227-4.627,0.68
		c-1.211,0.454-2.207,1.195-2.992,2.223l-7.893,10.885l12.791,18.868C497.686,57.252,498.655,58.296,499.623,58.869z"/>
</g>
<rect x="502.117" y="4.74" stroke="#000000" stroke-linecap="round" stroke-linejoin="round" stroke-miterlimit="10" width="12.134" height="12.134"/>
</svg>
